# xmcd
#
# Track frame offsets:
# 150
# 11744
# 26035
# 38961
# 52420
# 64043
# 77325
# 92114
# 103423
# 118784
# 131776
# 143948
# 158735
#
# Disc length: 2252 seconds
#
#
# Revision: 0
# Processed by: cddbd v1.5.2PL0 Copyright (c) Steve Scherf et al.
# Submitted via: FreeRIP 2.945 
#
DISCID=ba08ca0d
DTITLE=Os Atuais - Sinal Fechado
DYEAR=1900
DGENRE=
TTITLE0=Sinal Fechado
TTITLE1=Com Você Nunca Mais
TTITLE2=Vou Te Amarrar na Minha Cama
TTITLE3=Aviãozinho
TTITLE4=Choro Calado
TTITLE5=Namoro na Roça
TTITLE6=Do Outro Lado da Cidade
TTITLE7=Uma Noite de Amor
TTITLE8=Papo Dez
TTITLE9=Baila-me
TTITLE10=A Coisa Melhor do Mundo
TTITLE11=Amor Sem Limite
TTITLE12=Vou Pra Pagoeira
EXTD=
EXTT0=
EXTT1=
EXTT2=
EXTT3=
EXTT4=
EXTT5=
EXTT6=
EXTT7=
EXTT8=
EXTT9=
EXTT10=
EXTT11=
EXTT12=
PLAYORDER=
